<svg width="16" height="15" viewBox="0 0 16 15" fill="none" xmlns="http://www.w3.org/2000/svg">
<g clip-path="url(#clip0_4550_23683)">
<path d="M4.54848 13.6534C6.85019 13.6534 8.7161 10.6822 8.7161 7.01717C8.7161 3.35211 6.85019 0.380981 4.54848 0.380981C2.24677 0.380981 0.380859 3.35211 0.380859 7.01717C0.380859 10.6822 2.24677 13.6534 4.54848 13.6534Z" fill="white"/>
<path d="M4.54799 14.0342C2.04132 14.0342 -0.0234375 10.8876 -0.0234375 7.01711C-0.0234375 3.14664 2.01847 0 4.54799 0C7.07752 0 9.11942 3.14664 9.11942 7.01711C9.11942 10.8876 7.05466 14.0342 4.54799 14.0342ZM4.54799 0.761905C2.46037 0.761905 0.738467 3.56568 0.738467 7.01711C0.738467 10.4685 2.43752 13.2723 4.54799 13.2723C6.65847 13.2723 8.35752 10.4685 8.35752 7.01711C8.35752 3.56568 6.63561 0.792411 4.54799 0.792411V0.761905Z" fill="#222836"/>
<path d="M2.79601 10.3162C3.94056 10.3162 4.8684 8.8392 4.8684 7.01719C4.8684 5.19517 3.94056 3.71814 2.79601 3.71814C1.65147 3.71814 0.723633 5.19517 0.723633 7.01719C0.723633 8.8392 1.65147 10.3162 2.79601 10.3162Z" fill="#222836"/>
<path d="M11.4518 13.6534C13.7535 13.6534 15.6194 10.6822 15.6194 7.01717C15.6194 3.35211 13.7535 0.380981 11.4518 0.380981C9.15009 0.380981 7.28418 3.35211 7.28418 7.01717C7.28418 10.6822 9.15009 13.6534 11.4518 13.6534Z" fill="white"/>
<path d="M11.4513 14.0342C8.94465 14.0342 6.87988 10.8876 6.87988 7.01711C6.87988 3.14664 8.92179 0 11.4513 0C13.9808 0 16.0227 3.14664 16.0227 7.01711C16.0227 10.8876 13.9885 14.0342 11.4513 14.0342ZM11.4513 0.761905C9.36369 0.761905 7.64179 3.56568 7.64179 7.01711C7.64179 10.4685 9.34084 13.2723 11.4513 13.2723C13.5618 13.2723 15.2608 10.4685 15.2608 7.01711C15.2608 3.56568 13.5389 0.792411 11.4513 0.792411V0.761905Z" fill="#222836"/>
<path d="M9.69933 10.3162C10.8439 10.3162 11.7717 8.8392 11.7717 7.01719C11.7717 5.19517 10.8439 3.71814 9.69933 3.71814C8.55479 3.71814 7.62695 5.19517 7.62695 7.01719C7.62695 8.8392 8.55479 10.3162 9.69933 10.3162Z" fill="#222836"/>
</g>
<defs>
<clipPath id="clip0_4550_23683">
<rect width="16" height="14.0343" fill="white"/>
</clipPath>
</defs>
</svg>
